<?xml version="1.0" encoding="UTF-8"?>
<svg xmlns="http://www.w3.org/2000/svg" xmlns:xlink="http://www.w3.org/1999/xlink" width="45pt" height="45pt" viewBox="0 0 45 45" version="1.1">
<defs>
<radialGradient id="radial0" gradientUnits="userSpaceOnUse" cx="-364.8006" cy="132.74" fx="-364.8006" fy="132.74" r="13.438" gradientTransform="matrix(0.604854,1.402408,-1.16075,-1.172117,376.492288,689.627053)">
<stop offset="0" style="stop-color:rgb(4.705882%,57.254902%,21.960784%);stop-opacity:1;"/>
<stop offset="1" style="stop-color:rgb(61.176471%,76.862745%,10.588235%);stop-opacity:1;"/>
</radialGradient>
<linearGradient id="linear0" gradientUnits="userSpaceOnUse" x1="193.283" y1="-668.2124" x2="158.643" y2="-703.7424" gradientTransform="matrix(0.211665,0,0,-0.211665,0,-123.665334)">
<stop offset="0" style="stop-color:rgb(4.705882%,57.254902%,21.960784%);stop-opacity:1;"/>
<stop offset="1" style="stop-color:rgb(61.176471%,76.862745%,10.588235%);stop-opacity:1;"/>
</linearGradient>
<linearGradient id="linear1" gradientUnits="userSpaceOnUse" x1="139.7417" y1="-660.6347" x2="173.1417" y2="-642.2347" gradientTransform="matrix(0.211665,0,0,-0.211665,0,-123.665334)">
<stop offset="0" style="stop-color:rgb(61.176471%,76.862745%,10.588235%);stop-opacity:1;"/>
<stop offset="1" style="stop-color:rgb(4.705882%,57.254902%,21.960784%);stop-opacity:1;"/>
</linearGradient>
<linearGradient id="linear2" gradientUnits="userSpaceOnUse" x1="120.2747" y1="-726.2646" x2="137.3847" y2="-704.5247" gradientTransform="matrix(0.211665,0,0,-0.211665,0,-123.665334)">
<stop offset="0" style="stop-color:rgb(78.823529%,83.529412%,16.078431%);stop-opacity:1;"/>
<stop offset="1" style="stop-color:rgb(4.705882%,57.254902%,21.960784%);stop-opacity:1;"/>
</linearGradient>
<filter id="alpha" filterUnits="objectBoundingBox" x="0%" y="0%" width="100%" height="100%">
  <feColorMatrix type="matrix" in="SourceGraphic" values="0 0 0 0 1 0 0 0 0 1 0 0 0 0 1 0 0 0 1 0"/>
</filter>
<mask id="mask0">
  <g filter="url(#alpha)">
<rect x="0" y="0" width="45" height="45" style="fill:rgb(0%,0%,0%);fill-opacity:0.145098;stroke:none;"/>
  </g>
</mask>
<linearGradient id="linear3" gradientUnits="userSpaceOnUse" x1="145.2641" y1="-693.0516" x2="138.6841" y2="-682.3916" gradientTransform="matrix(0.211665,0,0,-0.211665,0,-123.665334)">
<stop offset="0" style="stop-color:rgb(100%,100%,100%);stop-opacity:1;"/>
<stop offset="1" style="stop-color:rgb(4.705882%,57.254902%,21.960784%);stop-opacity:1;"/>
</linearGradient>
<clipPath id="clip1">
  <rect width="45" height="45"/>
</clipPath>
<g id="surface6" clip-path="url(#clip1)">
<path style=" stroke:none;fill-rule:nonzero;fill:url(#linear3);" d="M 27.460938 21.460938 L 29.25 22.101562 L 30.753906 23.121094 L 30.707031 22.234375 L 31.480469 20.464844 L 30.023438 21.882812 Z M 27.460938 21.460938 "/>
</g>
<radialGradient id="radial1" gradientUnits="userSpaceOnUse" cx="-200.4664" cy="65.644" fx="-200.4664" fy="65.644" r="66.429" gradientTransform="matrix(0.00402164,-0.23588,-0.324186,-0.00554563,32.234436,-20.864252)">
<stop offset="0" style="stop-color:rgb(61.176471%,76.862745%,10.588235%);stop-opacity:1;"/>
<stop offset="1" style="stop-color:rgb(4.705882%,57.254902%,21.960784%);stop-opacity:1;"/>
</radialGradient>
<mask id="mask1">
  <g filter="url(#alpha)">
<rect x="0" y="0" width="45" height="45" style="fill:rgb(0%,0%,0%);fill-opacity:0.301961;stroke:none;"/>
  </g>
</mask>
<linearGradient id="linear4" gradientUnits="userSpaceOnUse" x1="89.2763" y1="-700.9209" x2="80.5163" y2="-701.7609" gradientTransform="matrix(0.211665,0,0,-0.211665,0,-123.665334)">
<stop offset="0" style="stop-color:rgb(100%,100%,100%);stop-opacity:1;"/>
<stop offset="1" style="stop-color:rgb(4.705882%,57.254902%,21.960784%);stop-opacity:1;"/>
</linearGradient>
<clipPath id="clip2">
  <rect width="45" height="45"/>
</clipPath>
<g id="surface9" clip-path="url(#clip2)">
<path style=" stroke:none;fill-rule:nonzero;fill:url(#linear4);" d="M 12.445312 17.421875 C 12.445312 17.421875 18.25 16.65625 18.359375 17.925781 C 18.578125 20.507812 18.6875 31.863281 18.976562 32.328125 C 19.371094 32.960938 12.542969 32.785156 12.542969 32.785156 C 12.542969 32.785156 16.539062 33.1875 17.460938 31.824219 C 17.75 31.398438 17.511719 22.527344 17.28125 19.398438 C 17.148438 17.597656 12.445312 17.421875 12.445312 17.421875 Z M 12.445312 17.421875 "/>
</g>
<mask id="mask2">
  <g filter="url(#alpha)">
<rect x="0" y="0" width="45" height="45" style="fill:rgb(0%,0%,0%);fill-opacity:0.407843;stroke:none;"/>
  </g>
</mask>
<linearGradient id="linear5" gradientUnits="userSpaceOnUse" x1="317.115" y1="-418.8561" x2="386.405" y2="-420.9961" gradientTransform="matrix(0.123697,0,0,-0.123866,-34.215748,-22.284906)">
<stop offset="0" style="stop-color:rgb(100%,100%,100%);stop-opacity:1;"/>
<stop offset="1" style="stop-color:rgb(100%,100%,100%);stop-opacity:0;"/>
</linearGradient>
<clipPath id="clip3">
  <rect width="45" height="45"/>
</clipPath>
<g id="surface12" clip-path="url(#clip3)">
<path style=" stroke:none;fill-rule:nonzero;fill:url(#linear5);" d="M 3.527344 27.386719 C 3.527344 27.386719 2.808594 32.929688 4.003906 32.960938 C 6.4375 33.023438 17.136719 32.488281 17.574219 32.734375 C 18.171875 33.070312 18.003906 26.609375 18.003906 26.609375 C 18.003906 26.609375 18.386719 30.375 17.097656 31.328125 C 16.699219 31.625 8.339844 31.902344 5.390625 31.859375 C 3.695312 31.835938 3.527344 27.386719 3.527344 27.386719 Z M 3.527344 27.386719 "/>
</g>
<mask id="mask3">
  <g filter="url(#alpha)">
<rect x="0" y="0" width="45" height="45" style="fill:rgb(0%,0%,0%);fill-opacity:0.301961;stroke:none;"/>
  </g>
</mask>
<clipPath id="clip4">
  <rect width="45" height="45"/>
</clipPath>
<g id="surface15" clip-path="url(#clip4)">
<path style=" stroke:none;fill-rule:nonzero;fill:rgb(100%,100%,100%);fill-opacity:1;" d="M 36.585938 12.355469 C 36.585938 12.355469 30.171875 21.929688 30.820312 23.027344 C 32.152344 25.296875 36.714844 31.789062 36.839844 32.324219 C 37.007812 33.050781 43.789062 22.714844 43.789062 22.714844 C 43.789062 22.714844 39.066406 30.242188 37.554688 30.894531 C 36.34375 31.417969 33.03125 25.683594 31.160156 22.6875 C 30.207031 21.15625 36.589844 12.355469 36.585938 12.355469 Z M 36.585938 12.355469 "/>
</g>
<mask id="mask4">
  <g filter="url(#alpha)">
<rect x="0" y="0" width="45" height="45" style="fill:rgb(0%,0%,0%);fill-opacity:0.0784314;stroke:none;"/>
  </g>
</mask>
<clipPath id="clip5">
  <rect width="45" height="45"/>
</clipPath>
<g id="surface18" clip-path="url(#clip5)">
<path style=" stroke:none;fill-rule:nonzero;fill:rgb(4.705882%,57.254902%,21.960784%);fill-opacity:1;" d="M 36.695312 12.0625 C 36.695312 12.0625 24.824219 10.976562 24.390625 12.089844 C 23.503906 14.351562 18.675781 20.75 18.273438 21.097656 C 17.726562 21.574219 30.472656 21.617188 30.472656 21.617188 C 30.472656 21.617188 19.792969 23.117188 19.253906 21.667969 C 19.078125 21.207031 23.269531 14.769531 24.519531 12.601562 C 25.371094 11.121094 36.695312 12.0625 36.695312 12.0625 Z M 36.695312 12.0625 "/>
</g>
<linearGradient id="linear6" gradientUnits="userSpaceOnUse" x1="716.3884" y1="-311.8503" x2="711.2584" y2="-322.3004" gradientTransform="matrix(0.5705,0,0,-0.5999,-373.6402,-92.1338)">
<stop offset="0" style="stop-color:rgb(80.392157%,80%,80%);stop-opacity:1;"/>
<stop offset="1" style="stop-color:rgb(100%,100%,100%);stop-opacity:1;"/>
</linearGradient>
<linearGradient id="linear7" gradientUnits="userSpaceOnUse" x1="716.3884" y1="-311.8503" x2="711.2584" y2="-322.3004" gradientTransform="matrix(0.5705,0,0,-0.5999,-353.1902,-72.4838)">
<stop offset="0" style="stop-color:rgb(80.392157%,80%,80%);stop-opacity:1;"/>
<stop offset="1" style="stop-color:rgb(100%,100%,100%);stop-opacity:1;"/>
</linearGradient>
<linearGradient id="linear8" gradientUnits="userSpaceOnUse" x1="716.3884" y1="-311.8503" x2="711.2584" y2="-322.3004" gradientTransform="matrix(0.5705,0,0,-0.5999,-334.8202,-52.0038)">
<stop offset="0" style="stop-color:rgb(80.392157%,80%,80%);stop-opacity:1;"/>
<stop offset="1" style="stop-color:rgb(100%,100%,100%);stop-opacity:1;"/>
</linearGradient>
<linearGradient id="linear9" gradientUnits="userSpaceOnUse" x1="169.8054" y1="-311.8503" x2="164.6754" y2="-322.3004" gradientTransform="matrix(-0.5705,0,0,-0.5999,166.0502,-92.1338)">
<stop offset="0" style="stop-color:rgb(80.392157%,80%,80%);stop-opacity:1;"/>
<stop offset="1" style="stop-color:rgb(100%,100%,100%);stop-opacity:1;"/>
</linearGradient>
<linearGradient id="linear10" gradientUnits="userSpaceOnUse" x1="169.8054" y1="-311.8503" x2="164.6754" y2="-322.3004" gradientTransform="matrix(-0.5705,0,0,-0.5999,127.2302,-52.0038)">
<stop offset="0" style="stop-color:rgb(80.392157%,80%,80%);stop-opacity:1;"/>
<stop offset="1" style="stop-color:rgb(100%,100%,100%);stop-opacity:1;"/>
</linearGradient>
<linearGradient id="linear11" gradientUnits="userSpaceOnUse" x1="169.8054" y1="-311.8503" x2="164.6754" y2="-322.3004" gradientTransform="matrix(-0.5705,0,0,-0.5999,127.2302,-52.0038)">
<stop offset="0" style="stop-color:rgb(80.392157%,80%,80%);stop-opacity:1;"/>
<stop offset="1" style="stop-color:rgb(100%,100%,100%);stop-opacity:1;"/>
</linearGradient>
<linearGradient id="linear12" gradientUnits="userSpaceOnUse" x1="547.2639" y1="-784.249" x2="517.2239" y2="-789.8889" gradientTransform="matrix(-0.4836,0.334,-0.2008,-0.2917,226.4199,-347.4507)">
<stop offset="0" style="stop-color:rgb(100%,100%,100%);stop-opacity:1;"/>
<stop offset="1" style="stop-color:rgb(40.392157%,40.392157%,40.392157%);stop-opacity:1;"/>
</linearGradient>
<linearGradient id="linear13" gradientUnits="userSpaceOnUse" x1="547.2639" y1="-784.249" x2="517.2239" y2="-789.8889" gradientTransform="matrix(-0.4836,0.334,-0.2008,-0.2917,233.0399,-332.8907)">
<stop offset="0" style="stop-color:rgb(100%,100%,100%);stop-opacity:1;"/>
<stop offset="1" style="stop-color:rgb(40.392157%,40.392157%,40.392157%);stop-opacity:1;"/>
</linearGradient>
<linearGradient id="linear14" gradientUnits="userSpaceOnUse" x1="547.1785" y1="-784.0905" x2="527.2685" y2="-788.1905" gradientTransform="matrix(-0.4836,0.334,-0.2008,-0.2917,239.7099,-317.4907)">
<stop offset="0" style="stop-color:rgb(100%,100%,100%);stop-opacity:1;"/>
<stop offset="1" style="stop-color:rgb(40.392157%,40.392157%,40.392157%);stop-opacity:1;"/>
</linearGradient>
<linearGradient id="linear15" gradientUnits="userSpaceOnUse" x1="798.3621" y1="-314.5294" x2="793.2321" y2="-324.9794" gradientTransform="matrix(0.4388,0,0,-0.5969,-190.5656,-88.8127)">
<stop offset="0" style="stop-color:rgb(80.392157%,80%,80%);stop-opacity:1;"/>
<stop offset="1" style="stop-color:rgb(100%,100%,100%);stop-opacity:1;"/>
</linearGradient>
<linearGradient id="linear16" gradientUnits="userSpaceOnUse" x1="798.3621" y1="-314.5294" x2="793.2321" y2="-324.9794" gradientTransform="matrix(0.4388,0,0,-0.5969,-180.5136,-75.2626)">
<stop offset="0" style="stop-color:rgb(80.392157%,80%,80%);stop-opacity:1;"/>
<stop offset="1" style="stop-color:rgb(100%,100%,100%);stop-opacity:1;"/>
</linearGradient>
<linearGradient id="linear17" gradientUnits="userSpaceOnUse" x1="798.3621" y1="-314.5294" x2="793.2321" y2="-324.9794" gradientTransform="matrix(0.4388,0,0,-0.5969,-170.8486,-60.5426)">
<stop offset="0" style="stop-color:rgb(80.392157%,80%,80%);stop-opacity:1;"/>
<stop offset="1" style="stop-color:rgb(100%,100%,100%);stop-opacity:1;"/>
</linearGradient>
<linearGradient id="linear18" gradientUnits="userSpaceOnUse" x1="821.9475" y1="-351.0644" x2="816.8175" y2="-361.5144" gradientTransform="matrix(0.4115,0,0,-0.5598,-139.9137,-97.646)">
<stop offset="0" style="stop-color:rgb(80.392157%,80%,80%);stop-opacity:1;"/>
<stop offset="1" style="stop-color:rgb(100%,100%,100%);stop-opacity:1;"/>
</linearGradient>
<linearGradient id="linear19" gradientUnits="userSpaceOnUse" x1="821.9475" y1="-351.0644" x2="816.8175" y2="-361.5144" gradientTransform="matrix(0.4115,0,0,-0.5598,-149.9657,-111.586)">
<stop offset="0" style="stop-color:rgb(80.392157%,80%,80%);stop-opacity:1;"/>
<stop offset="1" style="stop-color:rgb(100%,100%,100%);stop-opacity:1;"/>
</linearGradient>
<linearGradient id="linear20" gradientUnits="userSpaceOnUse" x1="821.9475" y1="-351.0644" x2="816.8175" y2="-361.5144" gradientTransform="matrix(0.4115,0,0,-0.5598,-159.2437,-125.526)">
<stop offset="0" style="stop-color:rgb(80.392157%,80%,80%);stop-opacity:1;"/>
<stop offset="1" style="stop-color:rgb(100%,100%,100%);stop-opacity:1;"/>
</linearGradient>
<mask id="mask5">
  <g filter="url(#alpha)">
<rect x="0" y="0" width="45" height="45" style="fill:rgb(0%,0%,0%);fill-opacity:0.333333;stroke:none;"/>
  </g>
</mask>
<clipPath id="clip6">
  <rect width="45" height="45"/>
</clipPath>
<g id="surface21" clip-path="url(#clip6)">
<path style=" stroke:none;fill-rule:nonzero;fill:rgb(4.705882%,57.254902%,21.960784%);fill-opacity:1;" d="M 34.769531 32.855469 C 34.769531 32.855469 26.058594 34.039062 25.371094 32.96875 C 24.324219 31.328125 22.632812 29.164062 18.386719 22.335938 C 17.992188 21.703125 27.5625 22.148438 27.5625 22.148438 C 27.5625 22.148438 20.472656 21.175781 19.636719 22.59375 C 19.027344 23.628906 24.398438 30.886719 25.800781 32.933594 C 26.816406 34.425781 34.769531 32.855469 34.769531 32.855469 Z M 34.769531 32.855469 "/>
</g>
</defs>
<g id="surface1">
<path style=" stroke:none;fill-rule:nonzero;fill:url(#radial0);" d="M 4.050781 33.230469 C 4.050781 33.230469 1.171875 33.125 1.046875 32.167969 C 0.726562 29.796875 0.65625 22.425781 0.78125 17.921875 C 0.800781 17.21875 4.25 16.660156 3.960938 17.214844 C 3.621094 17.863281 4.425781 33.714844 4.050781 33.230469 "/>
<path style=" stroke:none;fill-rule:nonzero;fill:url(#linear0);" d="M 36.5625 33.160156 C 36.230469 33.648438 36.730469 32.203125 36.386719 31.726562 L 30.203125 23.144531 C 29.859375 22.667969 30.234375 21.199219 30.554688 20.707031 L 35.589844 12.949219 C 36.328125 11.816406 36.417969 9.773438 38.507812 12.878906 L 43.628906 20.496094 C 44.15625 21.273438 43.960938 22.351562 43.628906 22.835938 L 36.5625 33.160156 "/>
<path style=" stroke:none;fill-rule:nonzero;fill:url(#linear1);" d="M 35.855469 11.125 L 27.6875 11.03125 C 26.453125 11.015625 25.421875 11.171875 24.601562 12.40625 L 18.441406 21.703125 C 18.042969 22.300781 18.804688 22.957031 19.335938 22.949219 L 29.960938 22.8125 C 30.492188 22.808594 30.457031 22.167969 30.699219 21.78125 L 36.980469 11.546875 C 37.222656 11.15625 36.390625 11.132812 35.855469 11.125 Z M 35.855469 11.125 "/>
<path style=" stroke:none;fill-rule:nonzero;fill:url(#linear2);" d="M 26.542969 33.164062 C 26.011719 33.152344 24.738281 32.601562 24.480469 32.222656 L 18.019531 22.695312 C 17.761719 22.316406 18.789062 21.574219 19.324219 21.566406 L 27.492188 21.472656 C 28.726562 21.457031 29.757812 21.613281 30.578125 22.847656 L 36.738281 32.144531 C 37.132812 32.742188 36.371094 33.40625 35.839844 33.390625 "/>
<use xlink:href="#surface6" mask="url(#mask0)"/>
<path style=" stroke:none;fill-rule:nonzero;fill:url(#radial1);" d="M 4.136719 33.140625 C 3.550781 33.140625 3.339844 32.84375 3.34375 32.253906 L 3.429688 18.097656 C 3.433594 17.511719 3.636719 16.953125 4.226562 16.949219 L 17.65625 16.859375 C 18.242188 16.855469 19.054688 17.867188 19.070312 18.453125 L 19.425781 32.078125 C 19.4375 32.667969 18.511719 33.140625 17.921875 33.140625 "/>
<use xlink:href="#surface9" mask="url(#mask1)"/>
<use xlink:href="#surface12" mask="url(#mask2)"/>
<use xlink:href="#surface15" mask="url(#mask3)"/>
<use xlink:href="#surface18" mask="url(#mask4)"/>
<path style="fill-rule:nonzero;fill:url(#linear6);stroke-width:0.6998;stroke-linecap:round;stroke-linejoin:miter;stroke:rgb(19.215686%,45.882353%,18.823529%);stroke-opacity:1;stroke-miterlimit:4;" d="M 41.265069 99.933073 C 41.265069 104.675972 37.426458 108.514583 32.702014 108.514583 C 27.977569 108.514583 24.138958 104.675972 24.138958 99.933073 C 24.138958 95.208628 27.977569 91.370017 32.702014 91.370017 C 37.426458 91.370017 41.265069 95.208628 41.265069 99.933073 Z M 41.265069 99.933073 " transform="matrix(0.211665,0,0,0.211665,0,0.000000000000003002)"/>
<path style="fill-rule:nonzero;fill:url(#linear7);stroke-width:0.6998;stroke-linecap:round;stroke-linejoin:miter;stroke:rgb(19.215686%,45.882353%,18.823529%);stroke-opacity:1;stroke-miterlimit:4;" d="M 61.713056 119.5875 C 61.713056 124.311944 57.874444 128.16901 53.15 128.16901 C 48.425556 128.16901 44.586944 124.311944 44.586944 119.5875 C 44.586944 114.863056 48.425556 111.024444 53.15 111.024444 C 57.874444 111.024444 61.713056 114.863056 61.713056 119.5875 Z M 61.713056 119.5875 " transform="matrix(0.211665,0,0,0.211665,0,0.000000000000003002)"/>
<path style="fill-rule:nonzero;fill:url(#linear8);stroke-width:0.6998;stroke-linecap:round;stroke-linejoin:miter;stroke:rgb(19.215686%,45.882353%,18.823529%);stroke-opacity:1;stroke-miterlimit:4;" d="M 80.075642 140.072396 C 80.075642 144.79684 76.255486 148.635451 71.512587 148.635451 C 66.788142 148.635451 62.967986 144.79684 62.967986 140.072396 C 62.967986 135.347951 66.788142 131.490885 71.512587 131.490885 C 76.255486 131.490885 80.075642 135.347951 80.075642 140.072396 Z M 80.075642 140.072396 " transform="matrix(0.211665,0,0,0.211665,0,0.000000000000003002)"/>
<path style="fill-rule:nonzero;fill:url(#linear9);stroke-width:0.6998;stroke-linecap:round;stroke-linejoin:miter;stroke:rgb(19.215686%,45.882353%,18.823529%);stroke-opacity:1;stroke-miterlimit:4;" d="M 62.967986 99.933073 C 62.967986 104.675972 66.788142 108.514583 71.512587 108.514583 C 76.255486 108.514583 80.075642 104.675972 80.075642 99.933073 C 80.075642 95.208628 76.255486 91.370017 71.512587 91.370017 C 66.788142 91.370017 62.967986 95.208628 62.967986 99.933073 Z M 62.967986 99.933073 " transform="matrix(0.211665,0,0,0.211665,0,0.000000000000003002)"/>
<path style="fill-rule:nonzero;fill:url(#linear10);stroke-width:0.6998;stroke-linecap:round;stroke-linejoin:miter;stroke:rgb(19.215686%,45.882353%,18.823529%);stroke-opacity:1;stroke-miterlimit:4;" d="M 24.138958 140.072396 C 24.138958 144.79684 27.977569 148.635451 32.702014 148.635451 C 37.426458 148.635451 41.265069 144.79684 41.265069 140.072396 C 41.265069 135.347951 37.426458 131.490885 32.702014 131.490885 C 27.977569 131.490885 24.138958 135.347951 24.138958 140.072396 Z M 24.138958 140.072396 " transform="matrix(0.211665,0,0,0.211665,0,0.000000000000003002)"/>
<path style="fill-rule:nonzero;fill:url(#linear11);stroke-width:0.6998;stroke-linecap:round;stroke-linejoin:miter;stroke:rgb(19.215686%,45.882353%,18.823529%);stroke-opacity:1;stroke-miterlimit:4;" d="M 24.138958 140.072396 C 24.138958 144.79684 27.977569 148.635451 32.702014 148.635451 C 37.426458 148.635451 41.265069 144.79684 41.265069 140.072396 C 41.265069 135.347951 37.426458 131.490885 32.702014 131.490885 C 27.977569 131.490885 24.138958 135.347951 24.138958 140.072396 Z M 24.138958 140.072396 " transform="matrix(0.211665,0,0,0.211665,0,0.000000000000003002)"/>
<path style="fill-rule:nonzero;fill:url(#linear12);stroke-width:0.6998;stroke-linecap:round;stroke-linejoin:miter;stroke:rgb(19.215686%,45.882353%,18.823529%);stroke-opacity:1;stroke-miterlimit:4;" d="M 117.096094 66.345226 C 118.683212 68.652083 123.223108 68.264531 127.227812 65.514757 C 131.232517 62.746528 133.188733 58.631094 131.601615 56.324236 C 130.014497 54.035833 125.474601 54.404931 121.488351 57.17316 C 117.483646 59.941389 115.527431 64.056823 117.096094 66.345226 Z M 117.096094 66.345226 " transform="matrix(0.211665,0,0,0.211665,0,0.000000000000003002)"/>
<path style="fill-rule:nonzero;fill:url(#linear13);stroke-width:0.6998;stroke-linecap:round;stroke-linejoin:miter;stroke:rgb(19.215686%,45.882353%,18.823529%);stroke-opacity:1;stroke-miterlimit:4;" d="M 123.721389 80.906111 C 125.308507 83.212969 129.848403 82.825417 133.834653 80.075642 C 137.857812 77.307413 139.814028 73.191979 138.22691 70.885122 C 136.639792 68.596719 132.099896 68.965816 128.095191 71.734045 C 124.108941 74.502274 122.134271 78.617708 123.721389 80.906111 Z M 123.721389 80.906111 " transform="matrix(0.211665,0,0,0.211665,0,0.000000000000003002)"/>
<path style="fill-rule:nonzero;fill:url(#linear14);stroke-width:0.6998;stroke-linecap:round;stroke-linejoin:miter;stroke:rgb(19.215686%,45.882353%,18.823529%);stroke-opacity:1;stroke-miterlimit:4;" d="M 130.383594 96.31592 C 131.970712 98.604323 136.510608 98.235226 140.515312 95.466997 C 144.520017 92.698767 146.476233 88.601788 144.889115 86.294931 C 143.301997 83.988073 138.762101 84.375625 134.775851 87.125399 C 130.771146 89.893628 128.814931 94.009062 130.383594 96.31592 Z M 130.383594 96.31592 " transform="matrix(0.211665,0,0,0.211665,0,0.000000000000003002)"/>
<path style="fill-rule:nonzero;fill:rgb(80.392157%,80%,80%);fill-opacity:1;stroke-width:0.6998;stroke-linecap:round;stroke-linejoin:miter;stroke:rgb(19.215686%,45.882353%,18.823529%);stroke-opacity:1;stroke-miterlimit:4;" d="M 131.140243 149.724288 C 129.829948 152.08651 125.62224 152.104965 121.746719 149.761198 C 117.852743 147.435885 115.767344 143.634184 117.077639 141.271962 C 118.387934 138.90974 122.595642 138.891285 126.471163 141.235052 C 130.365139 143.578819 132.450538 147.362066 131.140243 149.724288 Z M 131.140243 149.724288 " transform="matrix(0.211665,0,0,0.211665,0,0.000000000000003002)"/>
<path style="fill-rule:nonzero;fill:rgb(80.392157%,80%,80%);fill-opacity:1;stroke-width:0.6998;stroke-linecap:round;stroke-linejoin:miter;stroke:rgb(19.215686%,45.882353%,18.823529%);stroke-opacity:1;stroke-miterlimit:4;" d="M 142.766806 119.495226 C 141.327326 122.005087 136.658247 122.023542 132.321354 119.532135 C 128.021372 117.059184 125.696059 112.98066 127.153993 110.470799 C 128.593472 107.942483 133.262552 107.924028 137.58099 110.415434 C 141.917882 112.90684 144.22474 116.96691 142.766806 119.495226 Z M 142.766806 119.495226 " transform="matrix(0.211665,0,0,0.211665,0,0.000000000000003002)"/>
<path style="fill-rule:nonzero;fill:url(#linear15);stroke-width:0.6776;stroke-linecap:round;stroke-linejoin:miter;stroke:rgb(23.921569%,62.352941%,21.176471%);stroke-opacity:1;stroke-miterlimit:4;" d="M 164.561997 103.919323 C 164.561997 108.625312 161.627674 112.445469 157.992066 112.445469 C 154.356458 112.445469 151.403681 108.625312 151.403681 103.919323 C 151.403681 99.213333 154.356458 95.393177 157.992066 95.393177 C 161.627674 95.393177 164.561997 99.213333 164.561997 103.919323 Z M 164.561997 103.919323 " transform="matrix(0.211665,0,0,0.211665,0,0.000000000000003002)"/>
<path style="fill-rule:nonzero;fill:url(#linear16);stroke-width:0.6776;stroke-linecap:round;stroke-linejoin:miter;stroke:rgb(23.921569%,62.352941%,21.176471%);stroke-opacity:1;stroke-miterlimit:4;" d="M 174.619896 117.465191 C 174.619896 122.171181 171.667118 125.991337 168.03151 125.991337 C 164.414358 125.991337 161.46158 122.171181 161.46158 117.465191 C 161.46158 112.759201 164.414358 108.939045 168.03151 108.939045 C 171.667118 108.939045 174.619896 112.759201 174.619896 117.465191 Z M 174.619896 117.465191 " transform="matrix(0.211665,0,0,0.211665,0,0.000000000000003002)"/>
<path style="fill-rule:nonzero;fill:url(#linear17);stroke-width:0.6776;stroke-linecap:round;stroke-linejoin:miter;stroke:rgb(23.921569%,62.352941%,21.176471%);stroke-opacity:1;stroke-miterlimit:4;" d="M 184.290243 132.19217 C 184.290243 136.89816 181.337465 140.718316 177.701858 140.718316 C 174.084705 140.718316 171.131927 136.89816 171.131927 132.19217 C 171.131927 127.486181 174.084705 123.666024 177.701858 123.666024 C 181.337465 123.666024 184.290243 127.486181 184.290243 132.19217 Z M 184.290243 132.19217 " transform="matrix(0.211665,0,0,0.211665,0,0.000000000000003002)"/>
<path style="fill-rule:nonzero;fill:url(#linear18);stroke-width:0.7225;stroke-linecap:round;stroke-linejoin:miter;stroke:rgb(23.921569%,62.352941%,21.176471%);stroke-opacity:1;stroke-miterlimit:4;" d="M 202.818924 103.531771 C 202.818924 107.960938 200.069149 111.541181 196.655 111.541181 C 193.240851 111.541181 190.472622 107.960938 190.472622 103.531771 C 190.472622 99.121059 193.240851 95.540816 196.655 95.540816 C 200.069149 95.540816 202.818924 99.121059 202.818924 103.531771 Z M 202.818924 103.531771 " transform="matrix(0.211665,0,0,0.211665,0,0.000000000000003002)"/>
<path style="fill-rule:nonzero;fill:url(#linear19);stroke-width:0.7225;stroke-linecap:round;stroke-linejoin:miter;stroke:rgb(23.921569%,62.352941%,21.176471%);stroke-opacity:1;stroke-miterlimit:4;" d="M 192.761024 89.598351 C 192.761024 94.027517 190.01125 97.60776 186.597101 97.60776 C 183.182951 97.60776 180.433177 94.027517 180.433177 89.598351 C 180.433177 85.187639 183.182951 81.607396 186.597101 81.607396 C 190.01125 81.607396 192.761024 85.187639 192.761024 89.598351 Z M 192.761024 89.598351 " transform="matrix(0.211665,0,0,0.211665,0,0.000000000000003002)"/>
<path style="fill-rule:nonzero;fill:url(#linear20);stroke-width:0.7225;stroke-linecap:round;stroke-linejoin:miter;stroke:rgb(23.921569%,62.352941%,21.176471%);stroke-opacity:1;stroke-miterlimit:4;" d="M 183.496684 75.664931 C 183.496684 80.075642 180.728455 83.655885 177.314306 83.655885 C 173.918611 83.655885 171.150382 80.075642 171.150382 75.664931 C 171.150382 71.235764 173.918611 67.655521 177.314306 67.655521 C 180.728455 67.673976 183.496684 71.254219 183.496684 75.664931 Z M 183.496684 75.664931 " transform="matrix(0.211665,0,0,0.211665,0,0.000000000000003002)"/>
<use xlink:href="#surface21" mask="url(#mask5)"/>
</g>
</svg>
