<?xml version="1.0" encoding="utf-8"?>
<!-- Generator: Adobe Illustrator 23.0.0, SVG Export Plug-In . SVG Version: 6.00 Build 0)  -->
<svg version="1.1" id="Слой_1" xmlns="http://www.w3.org/2000/svg" xmlns:xlink="http://www.w3.org/1999/xlink" x="0px" y="0px"
	 viewBox="0 0 136.06 136.06" style="enable-background:new 0 0 136.06 136.06;" xml:space="preserve">
<style type="text/css">
	.st0{fill:url(#SVGID_1_);}
	.st1{fill:url(#path266_1_);}
	.st2{fill:url(#SVGID_2_);}
	.st3{opacity:0.1463;fill:url(#path270_1_);enable-background:new    ;}
	.st4{fill:url(#SVGID_3_);}
	.st5{opacity:0.3024;fill:url(#SVGID_4_);enable-background:new    ;}
	.st6{opacity:0.3024;fill:#FFFFFF;enable-background:new    ;}
	.st7{opacity:0.0781;enable-background:new    ;}
	.st8{fill:#0C9238;}
	.st9{fill:url(#path294_1_);stroke:#317530;stroke-width:0.6998;stroke-linecap:round;}
	.st10{fill:url(#path296_1_);stroke:#317530;stroke-width:0.6998;stroke-linecap:round;}
	.st11{fill:url(#path298_1_);stroke:#317530;stroke-width:0.6998;stroke-linecap:round;}
	.st12{fill:#CDCCCC;stroke:#317530;stroke-width:0.6998;stroke-linecap:round;}
	.st13{fill:url(#path304_1_);stroke:#3D9F36;stroke-width:0.6776;stroke-linecap:round;}
	.st14{fill:url(#path306_1_);stroke:#3D9F36;stroke-width:0.6776;stroke-linecap:round;}
	.st15{fill:url(#path308_1_);stroke:#3D9F36;stroke-width:0.6776;stroke-linecap:round;}
	.st16{fill:url(#path310_1_);stroke:#3D9F36;stroke-width:0.7225;stroke-linecap:round;}
	.st17{fill:url(#path312_1_);stroke:#3D9F36;stroke-width:0.7225;stroke-linecap:round;}
	.st18{fill:url(#path314_1_);stroke:#3D9F36;stroke-width:0.7225;stroke-linecap:round;}
	.st19{opacity:0.3317;enable-background:new    ;}
	.st20{opacity:0.2927;}
	.st21{opacity:0.4976;enable-background:new    ;}
</style>
<g id="g376" transform="translate(0 -796.36)">
	
		<linearGradient id="SVGID_1_" gradientUnits="userSpaceOnUse" x1="121.1579" y1="93.528" x2="80.99" y2="52.328" gradientTransform="matrix(1 0 0 -1 0 932.97)">
		<stop  offset="0" style="stop-color:#0C9238"/>
		<stop  offset="1" style="stop-color:#9CC41B"/>
	</linearGradient>
	<path class="st0" d="M134.36,854.29l-26.81-41.82c-10.93-17.05-11.4-5.83-15.25,0.39l-26.35,42.58l0,0
		c-1.68,2.71-3.65,10.76-1.85,13.38l32.35,47.12c1.38,2.02,0.16,7.17,0.31,8.22c0.13-0.02,0.27-0.03,0.4-0.05
		c0.06-0.08,0.13-0.16,0.21-0.29l36.97-56.67C136.1,864.47,137.1,858.57,134.36,854.29z"/>
	
		<linearGradient id="path266_1_" gradientUnits="userSpaceOnUse" x1="60.9771" y1="102.2813" x2="98.4114" y2="122.9037" gradientTransform="matrix(1 0 0 -1 0 932.97)">
		<stop  offset="0" style="stop-color:#9CC41B"/>
		<stop  offset="1" style="stop-color:#0C9238"/>
	</linearGradient>
	<path id="path266" class="st1" d="M93.68,802.85l-42.73-0.53c-6.44-0.08-11.84,0.77-16.14,7.57L2.58,860.91
		c-2.07,3.28,1.91,6.89,4.7,6.85l55.56-0.75c2.79-0.04,2.62-3.53,3.87-5.67l32.88-56.19C100.83,803.01,96.49,802.88,93.68,802.85
		L93.68,802.85z"/>
	
		<linearGradient id="SVGID_2_" gradientUnits="userSpaceOnUse" x1="38.9504" y1="26.3843" x2="58.5685" y2="51.3111" gradientTransform="matrix(1 0 0 -1 0 932.97)">
		<stop  offset="0" style="stop-color:#C9D529"/>
		<stop  offset="1" style="stop-color:#0C9238"/>
	</linearGradient>
	<path class="st2" d="M44.97,923.85l46.05,1.17c1.75-0.29,3.5-0.59,5.27-0.81c1.97-1.27,3.44-3.71,2-5.98l-32.23-51.02
		c-4.29-6.79-9.7-7.65-16.14-7.57L7.2,860.17l0,0c-2.81,0.03-8.17,4.12-6.83,6.19l7.37,11.41c0.25,0.35,0.48,0.7,0.69,1.06
		c0,0,0,0.01,0.01,0.01l25.73,39.82C35.51,920.75,42.19,923.78,44.97,923.85z"/>
	
		<linearGradient id="path270_1_" gradientUnits="userSpaceOnUse" x1="67.2036" y1="64.9112" x2="59.7557" y2="76.9773" gradientTransform="matrix(1 0 0 -1 0 932.97)">
		<stop  offset="0" style="stop-color:#FFFFFF"/>
		<stop  offset="1" style="stop-color:#0C9238"/>
	</linearGradient>
	<path id="path270" class="st3" d="M49.77,859.59l9.36,3.52l7.86,5.59l-0.23-4.86l4.04-9.72l-7.63,7.77L49.77,859.59z"/>
	
		<radialGradient id="SVGID_3_" cx="275.0518" cy="615.2285" r="66.429" gradientTransform="matrix(0.0211 -1.295 -1.6959 -0.0305 996.7482 1259.7781)" gradientUnits="userSpaceOnUse">
		<stop  offset="0" style="stop-color:#9CC41B"/>
		<stop  offset="1" style="stop-color:#0C9238"/>
	</radialGradient>
	<path class="st4" d="M6.15,854.36c-0.32,0.91-0.85,1.73-1.57,2.35c-0.25,0.69-0.63,1.33-1.12,1.87c-0.45,1-1.15,1.87-2.13,2.42
		c-0.2,0.94-0.59,1.77-1.15,2.43c-0.17,1.14-0.25,2.26-0.09,3.28c0.56,3.67,4.07,6.67,6.61,9.71L6.15,854.36z"/>
	
		<linearGradient id="SVGID_4_" gradientUnits="userSpaceOnUse" x1="3.9599" y1="66.9896" x2="-5.8238" y2="66.0514" gradientTransform="matrix(1 0 0 -1 0 932.97)">
		<stop  offset="0" style="stop-color:#FFFFFF"/>
		<stop  offset="1" style="stop-color:#0C9238"/>
	</linearGradient>
	<path class="st5" d="M1.32,861c-0.2,0.94-0.59,1.77-1.15,2.43c-0.17,1.14-0.25,2.26-0.09,3.28c0.33,2.15,1.68,4.07,3.25,5.91
		c-0.12-4.57-0.24-8.99-0.36-13.13C2.54,860.1,1.99,860.62,1.32,861z"/>
	<path id="path278" class="st6" d="M97.51,809.6c0,0-33.55,52.56-30.17,58.59c6.99,12.46,30.85,48.11,31.5,51.05
		c0.88,3.99,36.35-52.77,36.35-52.77s-24.7,41.34-32.62,44.92c-6.33,2.87-23.66-28.61-33.44-45.06
		C64.13,857.91,97.51,809.6,97.51,809.6L97.51,809.6z"/>
	<g class="st7">
		<path class="st8" d="M33.7,808.13c-2.81,7.54-13.19,23.4-21.41,35.15c-0.2,0.81-0.58,1.57-1.14,2.19
			c-0.18,0.83-0.53,1.61-1.08,2.24c-0.19,0.73-0.51,1.42-0.99,1.99c-0.22,0.88-0.66,1.71-1.32,2.34c-0.31,0.86-0.84,1.63-1.58,2.19
			c-0.32,0.96-0.85,1.83-1.61,2.48c-0.23,0.63-0.57,1.22-1,1.73c0.94,0.16,2.17,0.3,3.68,0.44c3.1-7.87,21.27-37.3,27.12-47.95
			c4.47-8.13,63.7-2.95,63.7-2.95v0C98.07,807.99,35.97,802.02,33.7,808.13z"/>
	</g>
	<g class="st7">
		<path class="st8" d="M6.82,860.72c2.83,7.95,58.68-0.29,58.68-0.29s-42.63-0.15-58.25-1.54C6.89,859.81,6.72,860.46,6.82,860.72z"
			/>
	</g>
	
		<linearGradient id="path294_1_" gradientUnits="userSpaceOnUse" x1="670.4811" y1="847.5093" x2="636.9781" y2="841.2192" gradientTransform="matrix(-0.4836 0.334 -0.2008 -0.2917 532.6102 839.334)">
		<stop  offset="0" style="stop-color:#FFFFFF"/>
		<stop  offset="1" style="stop-color:#676767"/>
	</linearGradient>
	<path id="path294" class="st9" d="M35.78,818.86c1.75,2.67,6.77,2.24,11.21-0.98s6.61-7.99,4.85-10.66
		c-1.75-2.67-6.77-2.24-11.21,0.98C36.19,811.41,34.02,816.19,35.78,818.86z"/>
	
		<linearGradient id="path296_1_" gradientUnits="userSpaceOnUse" x1="671.7635" y1="840.8864" x2="638.2605" y2="834.5963" gradientTransform="matrix(-0.4836 0.334 -0.2008 -0.2917 539.2302 853.894)">
		<stop  offset="0" style="stop-color:#FFFFFF"/>
		<stop  offset="1" style="stop-color:#676767"/>
	</linearGradient>
	<path id="path296" class="st10" d="M43.11,835.78c1.75,2.67,6.77,2.24,11.21-0.98s6.61-7.99,4.85-10.66
		c-1.75-2.67-6.77-2.24-11.21,0.98C43.52,828.33,41.35,833.11,43.11,835.78z"/>
	
		<linearGradient id="path298_1_" gradientUnits="userSpaceOnUse" x1="673.0667" y1="834.1136" x2="650.8776" y2="829.5443" gradientTransform="matrix(-0.4836 0.334 -0.2008 -0.2917 545.9003 869.294)">
		<stop  offset="0" style="stop-color:#FFFFFF"/>
		<stop  offset="1" style="stop-color:#676767"/>
	</linearGradient>
	<path id="path298" class="st11" d="M50.49,853.68c1.75,2.67,6.77,2.24,11.21-0.98c4.44-3.21,6.61-7.99,4.85-10.66
		c-1.75-2.67-6.77-2.24-11.21,0.98S48.74,851,50.49,853.68z"/>
	<path id="path300" class="st12" d="M51.32,915.76c-1.45,2.74-6.1,2.76-10.4,0.05s-6.61-7.14-5.16-9.88
		c1.45-2.74,6.1-2.76,10.4-0.05S52.77,913.01,51.32,915.76z"/>
	<path id="path302" class="st12" d="M64.2,880.62c-1.61,2.93-6.78,2.95-11.56,0.05c-4.77-2.9-7.34-7.62-5.73-10.54
		c1.61-2.93,6.78-2.95,11.56-0.05C63.24,872.97,65.8,877.69,64.2,880.62z"/>
	
		<linearGradient id="path304_1_" gradientUnits="userSpaceOnUse" x1="428.0075" y1="691.2927" x2="422.1038" y2="679.2667" gradientTransform="matrix(0.4388 0 0 -0.5969 -104.7081 1269.4565)">
		<stop  offset="0" style="stop-color:#CDCCCC"/>
		<stop  offset="1" style="stop-color:#FFFFFF"/>
	</linearGradient>
	<path id="path304" class="st13" d="M88.34,862.53c0,5.47-3.26,9.91-7.29,9.91s-7.29-4.44-7.29-9.91s3.26-9.91,7.29-9.91
		S88.34,857.06,88.34,862.53z"/>
	
		<linearGradient id="path306_1_" gradientUnits="userSpaceOnUse" x1="430.4645" y1="687.6135" x2="424.5609" y2="675.5875" gradientTransform="matrix(0.4388 0 0 -0.5969 -94.6561 1283.0066)">
		<stop  offset="0" style="stop-color:#CDCCCC"/>
		<stop  offset="1" style="stop-color:#FFFFFF"/>
	</linearGradient>
	<path id="path306" class="st14" d="M99.47,878.28c0,5.47-3.26,9.91-7.29,9.91c-4.03,0-7.29-4.44-7.29-9.91
		c0-5.47,3.26-9.91,7.29-9.91C96.21,868.37,99.47,872.8,99.47,878.28z"/>
	
		<linearGradient id="path308_1_" gradientUnits="userSpaceOnUse" x1="432.827" y1="683.6168" x2="426.9233" y2="671.5908" gradientTransform="matrix(0.4388 0 0 -0.5969 -84.9911 1297.7266)">
		<stop  offset="0" style="stop-color:#CDCCCC"/>
		<stop  offset="1" style="stop-color:#FFFFFF"/>
	</linearGradient>
	<path id="path308" class="st15" d="M110.17,895.38c0,5.47-3.26,9.91-7.29,9.91c-4.03,0-7.29-4.44-7.29-9.91s3.26-9.91,7.29-9.91
		C106.91,885.47,110.17,889.91,110.17,895.38z"/>
	
		<linearGradient id="path310_1_" gradientUnits="userSpaceOnUse" x1="426.8841" y1="695.3749" x2="420.9804" y2="683.3489" gradientTransform="matrix(0.4115 0 0 -0.5598 -49.8762 1245.9689)">
		<stop  offset="0" style="stop-color:#CDCCCC"/>
		<stop  offset="1" style="stop-color:#FFFFFF"/>
	</linearGradient>
	<path id="path310" class="st16" d="M130.69,862.09c0,5.13-3.06,9.29-6.83,9.29s-6.83-4.16-6.83-9.29s3.06-9.29,6.83-9.29
		S130.69,856.96,130.69,862.09z"/>
	
		<linearGradient id="path312_1_" gradientUnits="userSpaceOnUse" x1="424.2639" y1="699.4111" x2="418.3602" y2="687.3852" gradientTransform="matrix(0.4115 0 0 -0.5598 -59.9282 1232.0288)">
		<stop  offset="0" style="stop-color:#CDCCCC"/>
		<stop  offset="1" style="stop-color:#FFFFFF"/>
	</linearGradient>
	<path id="path312" class="st17" d="M119.56,845.89c0,5.13-3.06,9.29-6.83,9.29s-6.83-4.16-6.83-9.29c0-5.13,3.06-9.29,6.83-9.29
		S119.56,840.76,119.56,845.89z"/>
	
		<linearGradient id="path314_1_" gradientUnits="userSpaceOnUse" x1="421.8455" y1="703.4474" x2="415.9418" y2="691.4214" gradientTransform="matrix(0.4115 0 0 -0.5598 -69.2062 1218.0889)">
		<stop  offset="0" style="stop-color:#CDCCCC"/>
		<stop  offset="1" style="stop-color:#FFFFFF"/>
	</linearGradient>
	<path id="path314" class="st18" d="M109.29,829.69c0,5.13-3.06,9.29-6.83,9.29c-3.77,0-6.83-4.16-6.83-9.29s3.06-9.29,6.83-9.29
		C106.23,820.4,109.29,824.56,109.29,829.69z"/>
	<g class="st19">
		<path class="st8" d="M50.3,863.35c0,0-23.67-3.4-35.42-0.79C29.12,862.33,50.3,863.35,50.3,863.35z"/>
	</g>
	<g class="st19">
		<path class="st8" d="M44.5,924.87c-1.58-0.54-2.78-1.29-3.43-2.28c-7.33-11.25-35.43-51.08-32.24-56.77
			c0.88-1.57,3.09-2.6,6.05-3.25c-7.66,0.13-13.31,0.62-12.59,1.84c22.21,37.49,31.07,49.37,36.55,58.36
			C39.5,923.84,41.56,924.5,44.5,924.87z"/>
	</g>
	<g class="st19">
		<path class="st8" d="M66.29,925.46c11.16-1.13,21.71-3.31,21.71-3.31l0,0c0,0-30.4,4.34-43.49,2.72c1.23,0.42,2.71,0.73,4.36,0.92
			C54.66,925.63,60.47,925.49,66.29,925.46z"/>
	</g>
	<g id="g374" transform="matrix(.6016 0 0 .55868 -87.542 712.89)" class="st20">
		<g class="st21">
			<path class="st8" d="M255.73,380.48c-9.74-0.77-19.22-0.84-26.2,0.52C238.26,380.75,246.99,380.54,255.73,380.48z"/>
		</g>
	</g>
</g>
</svg>
