<?xml version="1.0" encoding="utf-8"?>
<!-- Generator: Adobe Illustrator 23.0.0, SVG Export Plug-In . SVG Version: 6.00 Build 0)  -->
<svg version="1.1" id="Слой_1" xmlns="http://www.w3.org/2000/svg" xmlns:xlink="http://www.w3.org/1999/xlink" x="0px" y="0px"
	 viewBox="0 0 212.6 212.6" style="enable-background:new 0 0 212.6 212.6;" xml:space="preserve">
<style type="text/css">
	.st0{fill:url(#path262_1_);}
	.st1{fill:url(#path264_1_);}
	.st2{fill:url(#path266_1_);}
	.st3{fill:url(#path268_1_);}
	.st4{opacity:0.1463;fill:url(#path270_1_);enable-background:new    ;}
	.st5{fill:url(#path272_1_);}
	.st6{opacity:0.3024;fill:url(#path274_1_);enable-background:new    ;}
	.st7{opacity:0.4098;enable-background:new    ;}
	.st8{fill:url(#SVGID_1_);}
	.st9{opacity:0.3024;fill:#FFFFFF;enable-background:new    ;}
	.st10{opacity:0.0781;enable-background:new    ;}
	.st11{fill:#0C9238;}
	.st12{fill:url(#path282_1_);stroke:#317530;stroke-width:0.6998;stroke-linecap:round;}
	.st13{fill:url(#path284_1_);stroke:#317530;stroke-width:0.6998;stroke-linecap:round;}
	.st14{fill:url(#path286_1_);stroke:#317530;stroke-width:0.6998;stroke-linecap:round;}
	.st15{fill:url(#path288_1_);stroke:#317530;stroke-width:0.6998;stroke-linecap:round;}
	.st16{fill:url(#path290_1_);stroke:#317530;stroke-width:0.6998;stroke-linecap:round;}
	.st17{fill:url(#path292_1_);stroke:#317530;stroke-width:0.6998;stroke-linecap:round;}
	.st18{fill:url(#path294_1_);stroke:#317530;stroke-width:0.6998;stroke-linecap:round;}
	.st19{fill:url(#path296_1_);stroke:#317530;stroke-width:0.6998;stroke-linecap:round;}
	.st20{fill:url(#path298_1_);stroke:#317530;stroke-width:0.6998;stroke-linecap:round;}
	.st21{fill:#CDCCCC;stroke:#317530;stroke-width:0.6998;stroke-linecap:round;}
	.st22{fill:url(#path304_1_);stroke:#3D9F36;stroke-width:0.6776;stroke-linecap:round;}
	.st23{fill:url(#path306_1_);stroke:#3D9F36;stroke-width:0.6776;stroke-linecap:round;}
	.st24{fill:url(#path308_1_);stroke:#3D9F36;stroke-width:0.6776;stroke-linecap:round;}
	.st25{fill:url(#path310_1_);stroke:#3D9F36;stroke-width:0.7225;stroke-linecap:round;}
	.st26{fill:url(#path312_1_);stroke:#3D9F36;stroke-width:0.7225;stroke-linecap:round;}
	.st27{fill:url(#path314_1_);stroke:#3D9F36;stroke-width:0.7225;stroke-linecap:round;}
	.st28{opacity:0.3317;enable-background:new    ;}
</style>
<radialGradient id="path262_1_" cx="-364.8006" cy="132.74" r="13.438" gradientTransform="matrix(2.8576 6.6256 -5.4839 -5.5376 1778.7169 3258.1047)" gradientUnits="userSpaceOnUse">
	<stop  offset="0" style="stop-color:#0C9238"/>
	<stop  offset="1" style="stop-color:#9CC41B"/>
</radialGradient>
<path id="path262" class="st0" d="M19.13,156.99c0,0-13.59-0.5-14.19-5.02c-1.5-11.19-1.84-46.02-1.25-67.3l0,0
	c0.09-3.33,16.39-5.96,15.03-3.34C17.11,84.4,20.91,159.29,19.13,156.99"/>
<linearGradient id="path264_1_" gradientUnits="userSpaceOnUse" x1="193.283" y1="-668.2124" x2="158.643" y2="-703.7424" gradientTransform="matrix(1 0 0 -1 0 -584.25)">
	<stop  offset="0" style="stop-color:#0C9238"/>
	<stop  offset="1" style="stop-color:#9CC41B"/>
</linearGradient>
<path id="path264" class="st1" d="M172.74,156.67c-1.58,2.3,0.79-4.53-0.83-6.78l-29.22-40.55c-1.62-2.25,0.15-9.18,1.67-11.52l0,0
	l23.79-36.64c3.48-5.35,3.9-15.01,13.77-0.34l24.21,35.99c2.48,3.68,1.57,8.76,0,11.06L172.74,156.67"/>
<linearGradient id="path266_1_" gradientUnits="userSpaceOnUse" x1="139.7417" y1="-660.6347" x2="173.1417" y2="-642.2347" gradientTransform="matrix(1 0 0 -1 0 -584.25)">
	<stop  offset="0" style="stop-color:#9CC41B"/>
	<stop  offset="1" style="stop-color:#0C9238"/>
</linearGradient>
<path id="path266" class="st2" d="M169.39,52.56l-38.59-0.45c-5.82-0.07-10.7,0.67-14.57,6.51l-29.11,43.91
	c-1.87,2.82,1.73,5.93,4.24,5.9l50.18-0.65c2.52-0.03,2.36-3.04,3.49-4.88l29.69-48.35C175.86,52.71,171.93,52.59,169.39,52.56
	L169.39,52.56z"/>
<linearGradient id="path268_1_" gradientUnits="userSpaceOnUse" x1="120.2747" y1="-726.2646" x2="137.3847" y2="-704.5247" gradientTransform="matrix(1 0 0 -1 0 -584.25)">
	<stop  offset="0" style="stop-color:#C9D529"/>
	<stop  offset="1" style="stop-color:#0C9238"/>
</linearGradient>
<path id="path268" class="st3" d="M125.41,156.69c-2.52-0.06-8.54-2.67-9.75-4.46l-30.53-45.01c-1.21-1.79,3.63-5.3,6.17-5.33l0,0
	l38.59-0.45c5.82-0.07,10.7,0.67,14.57,6.51l29.11,43.91c1.87,2.82-1.73,5.96-4.24,5.9"/>
<linearGradient id="path270_1_" gradientUnits="userSpaceOnUse" x1="145.2641" y1="-693.0516" x2="138.6841" y2="-682.3916" gradientTransform="matrix(1 0 0 -1 0 -584.25)">
	<stop  offset="0" style="stop-color:#FFFFFF"/>
	<stop  offset="1" style="stop-color:#0C9238"/>
</linearGradient>
<path id="path270" class="st4" d="M129.74,101.39l8.45,3.03l7.1,4.81l-0.21-4.18l3.65-8.36l-6.89,6.69L129.74,101.39z"/>
<radialGradient id="path272_1_" cx="-200.4664" cy="65.644" r="66.429" gradientTransform="matrix(0.019 -1.1144 -1.5316 -0.0262 152.2898 -98.572)" gradientUnits="userSpaceOnUse">
	<stop  offset="0" style="stop-color:#9CC41B"/>
	<stop  offset="1" style="stop-color:#0C9238"/>
</radialGradient>
<path id="path272" class="st5" d="M19.55,156.57c-2.78,0-3.77-1.4-3.76-4.18l0.42-66.88c0.02-2.78,0.98-5.42,3.76-5.43l0,0
	l63.45-0.42c2.77-0.02,6.61,4.75,6.68,7.52l1.67,64.38c0.07,2.78-4.32,5.02-7.1,5.02"/>
<linearGradient id="path274_1_" gradientUnits="userSpaceOnUse" x1="89.2763" y1="-700.9209" x2="80.5163" y2="-701.7609" gradientTransform="matrix(1 0 0 -1 0 -584.25)">
	<stop  offset="0" style="stop-color:#FFFFFF"/>
	<stop  offset="1" style="stop-color:#0C9238"/>
</linearGradient>
<path id="path274" class="st6" d="M58.8,82.3c0,0,27.42-3.61,27.93,2.39c1.04,12.2,1.56,65.85,2.93,68.05
	c1.86,2.99-30.41,2.15-30.41,2.15s18.89,1.91,23.25-4.54c1.36-2.01,0.24-43.92-0.86-58.71C81.02,83.14,58.8,82.31,58.8,82.3
	L58.8,82.3z"/>
<g id="path276" class="st7">
	
		<linearGradient id="SVGID_1_" gradientUnits="userSpaceOnUse" x1="317.115" y1="-418.8561" x2="386.405" y2="-420.9961" gradientTransform="matrix(0.5844 0 0 -0.5852 -161.6504 -105.2838)">
		<stop  offset="0" style="stop-color:#FFFFFF"/>
		<stop  offset="1" style="stop-color:#FFFFFF;stop-opacity:0"/>
	</linearGradient>
	<path class="st8" d="M16.67,129.39c0,0-3.4,26.18,2.25,26.33c11.49,0.3,62.04-2.24,64.11-1.07c2.82,1.59,2.03-28.93,2.03-28.93
		s1.8,17.79-4.28,22.29c-1.89,1.4-41.38,2.71-55.31,2.51C17.45,150.4,16.67,129.39,16.67,129.39L16.67,129.39z"/>
</g>
<path id="path278" class="st9" d="M172.85,58.37c0,0-30.3,45.23-27.25,50.42c6.31,10.72,27.86,41.4,28.45,43.93
	c0.8,3.43,32.83-45.41,32.83-45.41s-22.31,35.57-29.46,38.65c-5.72,2.47-21.37-24.62-30.2-38.77
	C142.71,99.95,172.86,58.37,172.85,58.37L172.85,58.37z"/>
<g id="path280" class="st10">
	<path class="st11" d="M173.36,56.99c0,0-56.08-5.14-58.13,0.12c-4.18,10.7-27,40.92-28.9,42.57c-2.58,2.24,57.63,2.44,57.63,2.44
		s-50.44,7.09-53,0.25c-0.82-2.18,18.98-32.6,24.88-42.84C119.86,52.54,173.36,56.99,173.36,56.99L173.36,56.99z"/>
</g>
<linearGradient id="path282_1_" gradientUnits="userSpaceOnUse" x1="716.3884" y1="-311.8503" x2="711.2584" y2="-322.3004" gradientTransform="matrix(0.5705 0 0 -0.5999 -373.6402 -92.1338)">
	<stop  offset="0" style="stop-color:#CDCCCC"/>
	<stop  offset="1" style="stop-color:#FFFFFF"/>
</linearGradient>
<path id="path282" class="st12" d="M41.26,99.94c0,4.73-3.83,8.57-8.56,8.57s-8.56-3.84-8.56-8.57c0-4.73,3.83-8.57,8.56-8.57
	S41.26,95.21,41.26,99.94z"/>
<linearGradient id="path284_1_" gradientUnits="userSpaceOnUse" x1="716.3884" y1="-311.8503" x2="711.2584" y2="-322.3004" gradientTransform="matrix(0.5705 0 0 -0.5999 -353.1902 -72.4838)">
	<stop  offset="0" style="stop-color:#CDCCCC"/>
	<stop  offset="1" style="stop-color:#FFFFFF"/>
</linearGradient>
<path id="path284" class="st13" d="M61.71,119.59c0,4.73-3.83,8.57-8.56,8.57s-8.56-3.84-8.56-8.57c0-4.73,3.83-8.57,8.56-8.57
	S61.71,114.86,61.71,119.59z"/>
<linearGradient id="path286_1_" gradientUnits="userSpaceOnUse" x1="716.3884" y1="-311.8503" x2="711.2584" y2="-322.3004" gradientTransform="matrix(0.5705 0 0 -0.5999 -334.8202 -52.0038)">
	<stop  offset="0" style="stop-color:#CDCCCC"/>
	<stop  offset="1" style="stop-color:#FFFFFF"/>
</linearGradient>
<path id="path286" class="st14" d="M80.08,140.07c0,4.73-3.83,8.57-8.56,8.57c-4.73,0-8.56-3.84-8.56-8.57s3.83-8.57,8.56-8.57
	C76.25,131.5,80.08,135.34,80.08,140.07z"/>
<linearGradient id="path288_1_" gradientUnits="userSpaceOnUse" x1="169.8054" y1="-311.8503" x2="164.6754" y2="-322.3004" gradientTransform="matrix(-0.5705 0 0 -0.5999 166.0502 -92.1338)">
	<stop  offset="0" style="stop-color:#CDCCCC"/>
	<stop  offset="1" style="stop-color:#FFFFFF"/>
</linearGradient>
<path id="path288" class="st15" d="M62.96,99.94c0,4.73,3.83,8.57,8.56,8.57c4.73,0,8.56-3.84,8.56-8.57c0-4.73-3.83-8.57-8.56-8.57
	C66.79,91.37,62.96,95.21,62.96,99.94z"/>
<linearGradient id="path290_1_" gradientUnits="userSpaceOnUse" x1="169.8054" y1="-311.8503" x2="164.6754" y2="-322.3004" gradientTransform="matrix(-0.5705 0 0 -0.5999 127.2302 -52.0038)">
	<stop  offset="0" style="stop-color:#CDCCCC"/>
	<stop  offset="1" style="stop-color:#FFFFFF"/>
</linearGradient>
<path id="path290" class="st16" d="M24.14,140.07c0,4.73,3.83,8.57,8.56,8.57s8.56-3.84,8.56-8.57s-3.83-8.57-8.56-8.57
	S24.14,135.34,24.14,140.07z"/>
<linearGradient id="path292_1_" gradientUnits="userSpaceOnUse" x1="169.8054" y1="-311.8503" x2="164.6754" y2="-322.3004" gradientTransform="matrix(-0.5705 0 0 -0.5999 127.2302 -52.0038)">
	<stop  offset="0" style="stop-color:#CDCCCC"/>
	<stop  offset="1" style="stop-color:#FFFFFF"/>
</linearGradient>
<path id="path292" class="st17" d="M24.14,140.07c0,4.73,3.83,8.57,8.56,8.57s8.56-3.84,8.56-8.57s-3.83-8.57-8.56-8.57
	S24.14,135.34,24.14,140.07z"/>
<linearGradient id="path294_1_" gradientUnits="userSpaceOnUse" x1="547.2639" y1="-784.249" x2="517.2239" y2="-789.8889" gradientTransform="matrix(-0.4836 0.334 -0.2008 -0.2917 226.4199 -347.4507)">
	<stop  offset="0" style="stop-color:#FFFFFF"/>
	<stop  offset="1" style="stop-color:#676767"/>
</linearGradient>
<path id="path294" class="st18" d="M117.1,66.35c1.58,2.3,6.12,1.92,10.12-0.84c4.01-2.77,5.97-6.87,4.38-9.18
	c-1.58-2.3-6.12-1.92-10.12,0.84C117.48,59.94,115.52,64.05,117.1,66.35z"/>
<linearGradient id="path296_1_" gradientUnits="userSpaceOnUse" x1="547.2639" y1="-784.249" x2="517.2239" y2="-789.8889" gradientTransform="matrix(-0.4836 0.334 -0.2008 -0.2917 233.0399 -332.8907)">
	<stop  offset="0" style="stop-color:#FFFFFF"/>
	<stop  offset="1" style="stop-color:#676767"/>
</linearGradient>
<path id="path296" class="st19" d="M123.72,80.91c1.58,2.3,6.12,1.92,10.12-0.84c4.01-2.77,5.97-6.87,4.38-9.18
	c-1.58-2.3-6.12-1.92-10.12,0.84C124.1,74.5,122.14,78.61,123.72,80.91z"/>
<linearGradient id="path298_1_" gradientUnits="userSpaceOnUse" x1="547.1785" y1="-784.0905" x2="527.2685" y2="-788.1905" gradientTransform="matrix(-0.4836 0.334 -0.2008 -0.2917 239.7099 -317.4907)">
	<stop  offset="0" style="stop-color:#FFFFFF"/>
	<stop  offset="1" style="stop-color:#676767"/>
</linearGradient>
<path id="path298" class="st20" d="M130.39,96.31c1.58,2.3,6.12,1.92,10.12-0.84c4.01-2.77,5.97-6.87,4.38-9.18
	c-1.58-2.3-6.12-1.92-10.12,0.84C130.77,89.9,128.81,94.01,130.39,96.31z"/>
<path id="path300" class="st21" d="M131.14,149.73c-1.31,2.36-5.51,2.38-9.4,0.04s-5.97-6.14-4.66-8.5s5.51-2.38,9.4-0.04
	S132.45,147.37,131.14,149.73z"/>
<path id="path302" class="st21" d="M142.77,119.49c-1.45,2.52-6.12,2.54-10.44,0.05c-4.31-2.49-6.63-6.56-5.18-9.07
	c1.45-2.52,6.12-2.54,10.44-0.05S144.22,116.97,142.77,119.49z"/>
<linearGradient id="path304_1_" gradientUnits="userSpaceOnUse" x1="798.3621" y1="-314.5294" x2="793.2321" y2="-324.9794" gradientTransform="matrix(0.4388 0 0 -0.5969 -190.5656 -88.8127)">
	<stop  offset="0" style="stop-color:#CDCCCC"/>
	<stop  offset="1" style="stop-color:#FFFFFF"/>
</linearGradient>
<path id="path304" class="st22" d="M164.57,103.92c0,4.71-2.95,8.53-6.58,8.53s-6.58-3.82-6.58-8.53c0-4.71,2.95-8.53,6.58-8.53
	S164.57,99.21,164.57,103.92z"/>
<linearGradient id="path306_1_" gradientUnits="userSpaceOnUse" x1="798.3621" y1="-314.5294" x2="793.2321" y2="-324.9794" gradientTransform="matrix(0.4388 0 0 -0.5969 -180.5136 -75.2626)">
	<stop  offset="0" style="stop-color:#CDCCCC"/>
	<stop  offset="1" style="stop-color:#FFFFFF"/>
</linearGradient>
<path id="path306" class="st23" d="M174.62,117.47c0,4.71-2.95,8.53-6.58,8.53s-6.58-3.82-6.58-8.53c0-4.71,2.95-8.53,6.58-8.53
	S174.62,112.76,174.62,117.47z"/>
<linearGradient id="path308_1_" gradientUnits="userSpaceOnUse" x1="798.3621" y1="-314.5294" x2="793.2321" y2="-324.9794" gradientTransform="matrix(0.4388 0 0 -0.5969 -170.8486 -60.5426)">
	<stop  offset="0" style="stop-color:#CDCCCC"/>
	<stop  offset="1" style="stop-color:#FFFFFF"/>
</linearGradient>
<path id="path308" class="st24" d="M184.29,132.19c0,4.71-2.95,8.53-6.58,8.53s-6.58-3.82-6.58-8.53c0-4.71,2.95-8.53,6.58-8.53
	S184.29,127.48,184.29,132.19z"/>
<linearGradient id="path310_1_" gradientUnits="userSpaceOnUse" x1="821.9475" y1="-351.0644" x2="816.8175" y2="-361.5144" gradientTransform="matrix(0.4115 0 0 -0.5598 -139.9137 -97.646)">
	<stop  offset="0" style="stop-color:#CDCCCC"/>
	<stop  offset="1" style="stop-color:#FFFFFF"/>
</linearGradient>
<path id="path310" class="st25" d="M202.82,103.54c0,4.42-2.76,8-6.17,8c-3.41,0-6.17-3.58-6.17-8c0-4.42,2.76-8,6.17-8
	C200.06,95.55,202.82,99.13,202.82,103.54z"/>
<linearGradient id="path312_1_" gradientUnits="userSpaceOnUse" x1="821.9475" y1="-351.0644" x2="816.8175" y2="-361.5144" gradientTransform="matrix(0.4115 0 0 -0.5598 -149.9657 -111.586)">
	<stop  offset="0" style="stop-color:#CDCCCC"/>
	<stop  offset="1" style="stop-color:#FFFFFF"/>
</linearGradient>
<path id="path312" class="st26" d="M192.77,89.6c0,4.42-2.76,8-6.17,8c-3.41,0-6.17-3.58-6.17-8c0-4.42,2.76-8,6.17-8
	C190.01,81.61,192.77,85.19,192.77,89.6z"/>
<linearGradient id="path314_1_" gradientUnits="userSpaceOnUse" x1="821.9475" y1="-351.0644" x2="816.8175" y2="-361.5144" gradientTransform="matrix(0.4115 0 0 -0.5598 -159.2437 -125.526)">
	<stop  offset="0" style="stop-color:#CDCCCC"/>
	<stop  offset="1" style="stop-color:#FFFFFF"/>
</linearGradient>
<path id="path314" class="st27" d="M183.49,75.66c0,4.42-2.76,8-6.17,8c-3.41,0-6.17-3.58-6.17-8c0-4.42,2.76-8,6.17-8
	C180.73,67.67,183.49,71.25,183.49,75.66z"/>
<g id="path316" class="st28">
	<path class="st11" d="M164.26,155.22c0,0-41.15,5.6-44.39,0.53c-4.95-7.74-12.95-17.96-33.01-50.22c-1.86-2.99,43.36-0.9,43.36-0.9
		s-33.5-4.59-37.45,2.12c-2.88,4.89,22.5,39.17,29.12,48.85C126.7,162.64,164.26,155.22,164.26,155.22L164.26,155.22z"/>
</g>
</svg>
