<?xml version="1.0" encoding="utf-8"?>
<!-- Generator: Adobe Illustrator 23.0.0, SVG Export Plug-In . SVG Version: 6.00 Build 0)  -->
<svg version="1.1" id="Слой_1" xmlns="http://www.w3.org/2000/svg" xmlns:xlink="http://www.w3.org/1999/xlink" x="0px" y="0px"
	 viewBox="0 0 212.6 113.39" style="enable-background:new 0 0 212.6 113.39;" xml:space="preserve">
<style type="text/css">
	.st0{fill:url(#path262_1_);}
	.st1{fill:url(#path264_1_);}
	.st2{fill:url(#path266_1_);}
	.st3{fill:url(#path268_1_);}
	.st4{opacity:0.1463;fill:url(#path270_1_);enable-background:new    ;}
	.st5{fill:url(#path272_1_);}
	.st6{opacity:0.3024;fill:url(#path274_1_);enable-background:new    ;}
	.st7{opacity:0.4098;enable-background:new    ;}
	.st8{fill:url(#SVGID_1_);}
	.st9{opacity:0.3024;fill:#FFFFFF;enable-background:new    ;}
	.st10{opacity:0.0781;enable-background:new    ;}
	.st11{fill:#0C9238;}
	.st12{fill:url(#path282_1_);stroke:#317530;stroke-width:0.6998;stroke-linecap:round;}
	.st13{fill:url(#path284_1_);stroke:#317530;stroke-width:0.6998;stroke-linecap:round;}
	.st14{fill:url(#path286_1_);stroke:#317530;stroke-width:0.6998;stroke-linecap:round;}
	.st15{fill:url(#path288_1_);stroke:#317530;stroke-width:0.6998;stroke-linecap:round;}
	.st16{fill:url(#path290_1_);stroke:#317530;stroke-width:0.6998;stroke-linecap:round;}
	.st17{fill:url(#path292_1_);stroke:#317530;stroke-width:0.6998;stroke-linecap:round;}
	.st18{fill:url(#path294_1_);stroke:#317530;stroke-width:0.6998;stroke-linecap:round;}
	.st19{fill:url(#path296_1_);stroke:#317530;stroke-width:0.6998;stroke-linecap:round;}
	.st20{fill:url(#path298_1_);stroke:#317530;stroke-width:0.6998;stroke-linecap:round;}
	.st21{fill:#CDCCCC;stroke:#317530;stroke-width:0.6998;stroke-linecap:round;}
	.st22{fill:url(#path304_1_);stroke:#3D9F36;stroke-width:0.6776;stroke-linecap:round;}
	.st23{fill:url(#path306_1_);stroke:#3D9F36;stroke-width:0.6776;stroke-linecap:round;}
	.st24{fill:url(#path308_1_);stroke:#3D9F36;stroke-width:0.6776;stroke-linecap:round;}
	.st25{fill:url(#path310_1_);stroke:#3D9F36;stroke-width:0.7225;stroke-linecap:round;}
	.st26{fill:url(#path312_1_);stroke:#3D9F36;stroke-width:0.7225;stroke-linecap:round;}
	.st27{fill:url(#path314_1_);stroke:#3D9F36;stroke-width:0.7225;stroke-linecap:round;}
	.st28{opacity:0.3317;enable-background:new    ;}
</style>
<radialGradient id="path262_1_" cx="-365.2308" cy="83.3779" r="13.438" gradientTransform="matrix(2.8576 6.6256 -5.4839 -5.5376 1510.0059 2937.7625)" gradientUnits="userSpaceOnUse">
	<stop  offset="0" style="stop-color:#0C9238"/>
	<stop  offset="1" style="stop-color:#9CC41B"/>
</radialGradient>
<path id="path262" class="st0" d="M19.89,107.15c0,0-13.59-0.5-14.19-5.02c-1.5-11.19-1.84-46.02-1.25-67.3l0,0
	c0.09-3.33,16.39-5.96,15.03-3.34C17.87,34.56,21.66,109.45,19.89,107.15"/>
<linearGradient id="path264_1_" gradientUnits="userSpaceOnUse" x1="194.0394" y1="-716.3672" x2="159.3994" y2="-751.8972" gradientTransform="matrix(1 0 0 -1 0 -682.25)">
	<stop  offset="0" style="stop-color:#0C9238"/>
	<stop  offset="1" style="stop-color:#9CC41B"/>
</linearGradient>
<path id="path264" class="st1" d="M173.5,106.82c-1.58,2.3,0.79-4.53-0.83-6.78L143.44,59.5c-1.62-2.25,0.15-9.18,1.67-11.52l0,0
	l23.79-36.64c3.48-5.35,3.9-15.01,13.77-0.34l24.21,35.99c2.48,3.68,1.57,8.76,0,11.06L173.5,106.82"/>
<linearGradient id="path266_1_" gradientUnits="userSpaceOnUse" x1="140.4981" y1="-708.7894" x2="173.8981" y2="-690.3895" gradientTransform="matrix(1 0 0 -1 0 -682.25)">
	<stop  offset="0" style="stop-color:#9CC41B"/>
	<stop  offset="1" style="stop-color:#0C9238"/>
</linearGradient>
<path id="path266" class="st2" d="M170.15,2.72l-38.59-0.45c-5.82-0.07-10.7,0.67-14.57,6.51L87.88,52.68
	c-1.87,2.82,1.73,5.93,4.24,5.9l50.18-0.65c2.52-0.03,2.36-3.04,3.49-4.88L175.48,4.7C176.61,2.86,172.69,2.75,170.15,2.72
	L170.15,2.72z"/>
<linearGradient id="path268_1_" gradientUnits="userSpaceOnUse" x1="121.0311" y1="-774.4194" x2="138.1411" y2="-752.6794" gradientTransform="matrix(1 0 0 -1 0 -682.25)">
	<stop  offset="0" style="stop-color:#C9D529"/>
	<stop  offset="1" style="stop-color:#0C9238"/>
</linearGradient>
<path id="path268" class="st3" d="M126.16,106.85c-2.52-0.06-8.54-2.67-9.75-4.46L85.88,57.38c-1.21-1.79,3.63-5.3,6.17-5.33l0,0
	l38.59-0.45c5.82-0.07,10.7,0.67,14.57,6.51l29.11,43.91c1.87,2.82-1.73,5.96-4.24,5.9"/>
<linearGradient id="path270_1_" gradientUnits="userSpaceOnUse" x1="146.0204" y1="-741.2064" x2="139.4404" y2="-730.5464" gradientTransform="matrix(1 0 0 -1 0 -682.25)">
	<stop  offset="0" style="stop-color:#FFFFFF"/>
	<stop  offset="1" style="stop-color:#0C9238"/>
</linearGradient>
<path id="path270" class="st4" d="M130.5,51.55l8.45,3.03l7.1,4.81l-0.21-4.18l3.65-8.36l-6.89,6.69L130.5,51.55z"/>
<radialGradient id="path272_1_" cx="-199.6965" cy="16.1597" r="66.429" gradientTransform="matrix(0.019 -1.1144 -1.5316 -0.0262 77.2414 -148.8577)" gradientUnits="userSpaceOnUse">
	<stop  offset="0" style="stop-color:#9CC41B"/>
	<stop  offset="1" style="stop-color:#0C9238"/>
</radialGradient>
<path id="path272" class="st5" d="M20.31,106.73c-2.78,0-3.77-1.4-3.76-4.18l0.42-66.88c0.02-2.78,0.98-5.42,3.76-5.43l0,0
	l63.45-0.42c2.77-0.02,6.61,4.75,6.68,7.52l1.67,64.38c0.07,2.78-4.32,5.02-7.1,5.02"/>
<linearGradient id="path274_1_" gradientUnits="userSpaceOnUse" x1="90.0326" y1="-749.0756" x2="81.2726" y2="-749.9156" gradientTransform="matrix(1 0 0 -1 0 -682.25)">
	<stop  offset="0" style="stop-color:#FFFFFF"/>
	<stop  offset="1" style="stop-color:#0C9238"/>
</linearGradient>
<path id="path274" class="st6" d="M59.56,32.46c0,0,27.42-3.61,27.93,2.39c1.04,12.2,1.56,65.85,2.93,68.05
	c1.86,2.99-30.41,2.15-30.41,2.15s18.89,1.91,23.25-4.54c1.36-2.01,0.24-43.92-0.86-58.71C81.78,33.29,59.56,32.46,59.56,32.46
	L59.56,32.46z"/>
<g id="path276" class="st7">
	
		<linearGradient id="SVGID_1_" gradientUnits="userSpaceOnUse" x1="318.4093" y1="-466.4118" x2="387.6993" y2="-468.5518" gradientTransform="matrix(0.5844 0 0 -0.5852 -161.6504 -182.9601)">
		<stop  offset="0" style="stop-color:#FFFFFF"/>
		<stop  offset="1" style="stop-color:#FFFFFF;stop-opacity:0"/>
	</linearGradient>
	<path class="st8" d="M17.42,79.55c0,0-3.4,26.18,2.25,26.33c11.49,0.3,62.04-2.24,64.11-1.07c2.82,1.59,2.03-28.93,2.03-28.93
		s1.8,17.79-4.28,22.29c-1.89,1.4-41.38,2.71-55.31,2.51C18.21,100.56,17.42,79.55,17.42,79.55L17.42,79.55z"/>
</g>
<path id="path278" class="st9" d="M173.61,8.53c0,0-30.3,45.23-27.25,50.42c6.31,10.72,27.86,41.4,28.45,43.93
	c0.8,3.43,32.83-45.41,32.83-45.41s-22.31,35.57-29.46,38.65c-5.72,2.47-21.37-24.62-30.2-38.77
	C143.46,50.1,173.61,8.53,173.61,8.53L173.61,8.53z"/>
<g id="path280" class="st10">
	<path class="st11" d="M174.11,7.15c0,0-56.08-5.14-58.13,0.12c-4.18,10.7-27,40.92-28.9,42.57c-2.58,2.24,57.63,2.44,57.63,2.44
		s-50.44,7.09-53,0.25c-0.82-2.18,18.98-32.6,24.88-42.84C120.62,2.69,174.11,7.15,174.11,7.15L174.11,7.15z"/>
</g>
<linearGradient id="path282_1_" gradientUnits="userSpaceOnUse" x1="717.7143" y1="-359.4413" x2="712.5843" y2="-369.8913" gradientTransform="matrix(0.5705 0 0 -0.5999 -373.6402 -170.5269)">
	<stop  offset="0" style="stop-color:#CDCCCC"/>
	<stop  offset="1" style="stop-color:#FFFFFF"/>
</linearGradient>
<path id="path282" class="st12" d="M42.01,50.09c0,4.73-3.83,8.57-8.56,8.57s-8.56-3.84-8.56-8.57s3.83-8.57,8.56-8.57
	S42.01,45.36,42.01,50.09z"/>
<linearGradient id="path284_1_" gradientUnits="userSpaceOnUse" x1="717.7143" y1="-359.4413" x2="712.5843" y2="-369.8913" gradientTransform="matrix(0.5705 0 0 -0.5999 -353.1902 -150.8769)">
	<stop  offset="0" style="stop-color:#CDCCCC"/>
	<stop  offset="1" style="stop-color:#FFFFFF"/>
</linearGradient>
<path id="path284" class="st13" d="M62.46,69.74c0,4.73-3.83,8.57-8.56,8.57s-8.56-3.84-8.56-8.57c0-4.73,3.83-8.57,8.56-8.57
	S62.46,65.01,62.46,69.74z"/>
<linearGradient id="path286_1_" gradientUnits="userSpaceOnUse" x1="717.7143" y1="-359.4413" x2="712.5843" y2="-369.8913" gradientTransform="matrix(0.5705 0 0 -0.5999 -334.8202 -130.3969)">
	<stop  offset="0" style="stop-color:#CDCCCC"/>
	<stop  offset="1" style="stop-color:#FFFFFF"/>
</linearGradient>
<path id="path286" class="st14" d="M80.83,90.22c0,4.73-3.83,8.57-8.56,8.57s-8.56-3.84-8.56-8.57c0-4.73,3.83-8.57,8.56-8.57
	S80.83,85.49,80.83,90.22z"/>
<linearGradient id="path288_1_" gradientUnits="userSpaceOnUse" x1="168.4795" y1="-359.4413" x2="163.3495" y2="-369.8913" gradientTransform="matrix(-0.5705 0 0 -0.5999 166.0502 -170.5269)">
	<stop  offset="0" style="stop-color:#CDCCCC"/>
	<stop  offset="1" style="stop-color:#FFFFFF"/>
</linearGradient>
<path id="path288" class="st15" d="M63.72,50.09c0,4.73,3.83,8.57,8.56,8.57s8.56-3.84,8.56-8.57s-3.83-8.57-8.56-8.57
	S63.72,45.36,63.72,50.09z"/>
<linearGradient id="path290_1_" gradientUnits="userSpaceOnUse" x1="168.4795" y1="-359.4413" x2="163.3495" y2="-369.8913" gradientTransform="matrix(-0.5705 0 0 -0.5999 127.2302 -130.3969)">
	<stop  offset="0" style="stop-color:#CDCCCC"/>
	<stop  offset="1" style="stop-color:#FFFFFF"/>
</linearGradient>
<path id="path290" class="st16" d="M24.9,90.22c0,4.73,3.83,8.57,8.56,8.57s8.56-3.84,8.56-8.57c0-4.73-3.83-8.57-8.56-8.57
	S24.9,85.49,24.9,90.22z"/>
<linearGradient id="path292_1_" gradientUnits="userSpaceOnUse" x1="168.4795" y1="-359.4413" x2="163.3495" y2="-369.8913" gradientTransform="matrix(-0.5705 0 0 -0.5999 127.2302 -130.3969)">
	<stop  offset="0" style="stop-color:#CDCCCC"/>
	<stop  offset="1" style="stop-color:#FFFFFF"/>
</linearGradient>
<path id="path292" class="st17" d="M24.9,90.22c0,4.73,3.83,8.57,8.56,8.57s8.56-3.84,8.56-8.57c0-4.73-3.83-8.57-8.56-8.57
	S24.9,85.49,24.9,90.22z"/>
<linearGradient id="path294_1_" gradientUnits="userSpaceOnUse" x1="545.3881" y1="-832.4988" x2="515.3481" y2="-838.1387" gradientTransform="matrix(-0.4836 0.334 -0.2008 -0.2917 216.5782 -410.7421)">
	<stop  offset="0" style="stop-color:#FFFFFF"/>
	<stop  offset="1" style="stop-color:#676767"/>
</linearGradient>
<path id="path294" class="st18" d="M117.86,16.5c1.58,2.3,6.12,1.92,10.12-0.84c4.01-2.77,5.97-6.87,4.38-9.18
	s-6.12-1.92-10.12,0.84S116.27,14.2,117.86,16.5z"/>
<linearGradient id="path296_1_" gradientUnits="userSpaceOnUse" x1="545.3881" y1="-832.4988" x2="515.3481" y2="-838.1387" gradientTransform="matrix(-0.4836 0.334 -0.2008 -0.2917 223.1982 -396.1821)">
	<stop  offset="0" style="stop-color:#FFFFFF"/>
	<stop  offset="1" style="stop-color:#676767"/>
</linearGradient>
<path id="path296" class="st19" d="M124.48,31.06c1.58,2.3,6.12,1.92,10.12-0.84s5.97-6.87,4.38-9.18s-6.12-1.92-10.12,0.84
	C124.86,24.65,122.89,28.76,124.48,31.06z"/>
<linearGradient id="path298_1_" gradientUnits="userSpaceOnUse" x1="545.3026" y1="-832.3403" x2="525.3927" y2="-836.4404" gradientTransform="matrix(-0.4836 0.334 -0.2008 -0.2917 229.8682 -380.782)">
	<stop  offset="0" style="stop-color:#FFFFFF"/>
	<stop  offset="1" style="stop-color:#676767"/>
</linearGradient>
<path id="path298" class="st20" d="M131.15,46.46c1.58,2.3,6.12,1.92,10.12-0.84c4.01-2.77,5.97-6.87,4.38-9.18
	c-1.58-2.3-6.12-1.92-10.12,0.84C131.53,40.05,129.56,44.16,131.15,46.46z"/>
<path id="path300" class="st21" d="M131.9,99.88c-1.31,2.36-5.51,2.38-9.4,0.04s-5.97-6.14-4.66-8.5c1.31-2.36,5.51-2.38,9.4-0.04
	C131.12,93.72,133.21,97.52,131.9,99.88z"/>
<path id="path302" class="st21" d="M143.53,69.65c-1.45,2.52-6.12,2.54-10.44,0.05s-6.63-6.56-5.18-9.07s6.12-2.54,10.44-0.05
	C142.66,63.07,144.98,67.13,143.53,69.65z"/>
<linearGradient id="path304_1_" gradientUnits="userSpaceOnUse" x1="800.0857" y1="-362.1135" x2="794.9557" y2="-372.5635" gradientTransform="matrix(0.4388 0 0 -0.5969 -190.5656 -167.0627)">
	<stop  offset="0" style="stop-color:#CDCCCC"/>
	<stop  offset="1" style="stop-color:#FFFFFF"/>
</linearGradient>
<path id="path304" class="st22" d="M165.33,54.08c0,4.71-2.95,8.53-6.58,8.53s-6.58-3.82-6.58-8.53s2.95-8.53,6.58-8.53
	S165.33,49.37,165.33,54.08z"/>
<linearGradient id="path306_1_" gradientUnits="userSpaceOnUse" x1="800.0857" y1="-362.1135" x2="794.9557" y2="-372.5635" gradientTransform="matrix(0.4388 0 0 -0.5969 -180.5136 -153.5127)">
	<stop  offset="0" style="stop-color:#CDCCCC"/>
	<stop  offset="1" style="stop-color:#FFFFFF"/>
</linearGradient>
<path id="path306" class="st23" d="M175.38,67.63c0,4.71-2.95,8.53-6.58,8.53s-6.58-3.82-6.58-8.53s2.95-8.53,6.58-8.53
	S175.38,62.92,175.38,67.63z"/>
<linearGradient id="path308_1_" gradientUnits="userSpaceOnUse" x1="800.0857" y1="-362.1135" x2="794.9557" y2="-372.5635" gradientTransform="matrix(0.4388 0 0 -0.5969 -170.8486 -138.7927)">
	<stop  offset="0" style="stop-color:#CDCCCC"/>
	<stop  offset="1" style="stop-color:#FFFFFF"/>
</linearGradient>
<path id="path308" class="st24" d="M185.05,82.35c0,4.71-2.95,8.53-6.58,8.53s-6.58-3.82-6.58-8.53c0-4.71,2.95-8.53,6.58-8.53
	S185.05,77.64,185.05,82.35z"/>
<linearGradient id="path310_1_" gradientUnits="userSpaceOnUse" x1="823.7855" y1="-398.5545" x2="818.6555" y2="-409.0045" gradientTransform="matrix(0.4115 0 0 -0.5598 -139.9137 -174.0752)">
	<stop  offset="0" style="stop-color:#CDCCCC"/>
	<stop  offset="1" style="stop-color:#FFFFFF"/>
</linearGradient>
<path id="path310" class="st25" d="M203.58,53.7c0,4.42-2.76,8-6.17,8c-3.41,0-6.17-3.58-6.17-8s2.76-8,6.17-8
	C200.81,45.7,203.58,49.28,203.58,53.7z"/>
<linearGradient id="path312_1_" gradientUnits="userSpaceOnUse" x1="823.7855" y1="-398.5545" x2="818.6555" y2="-409.0045" gradientTransform="matrix(0.4115 0 0 -0.5598 -149.9657 -188.0152)">
	<stop  offset="0" style="stop-color:#CDCCCC"/>
	<stop  offset="1" style="stop-color:#FFFFFF"/>
</linearGradient>
<path id="path312" class="st26" d="M193.53,39.76c0,4.42-2.76,8-6.17,8c-3.41,0-6.17-3.58-6.17-8s2.76-8,6.17-8
	C190.76,31.76,193.53,35.34,193.53,39.76z"/>
<linearGradient id="path314_1_" gradientUnits="userSpaceOnUse" x1="823.7855" y1="-398.5545" x2="818.6555" y2="-409.0045" gradientTransform="matrix(0.4115 0 0 -0.5598 -159.2437 -201.9552)">
	<stop  offset="0" style="stop-color:#CDCCCC"/>
	<stop  offset="1" style="stop-color:#FFFFFF"/>
</linearGradient>
<path id="path314" class="st27" d="M184.25,25.82c0,4.42-2.76,8-6.17,8c-3.41,0-6.17-3.58-6.17-8s2.76-8,6.17-8
	C181.48,17.82,184.25,21.4,184.25,25.82z"/>
<g id="path316" class="st28">
	<path class="st11" d="M165.02,105.38c0,0-41.15,5.6-44.39,0.53c-4.95-7.74-12.95-17.96-33.01-50.22c-1.86-2.99,43.36-0.9,43.36-0.9
		s-33.5-4.59-37.45,2.12c-2.88,4.89,22.5,39.17,29.12,48.85C127.46,112.8,165.02,105.38,165.02,105.38L165.02,105.38z"/>
</g>
</svg>
